/* XPM */
static char * rock_xpm[] = {
"50 50 24 1",
" 	c #74A334",
".	c #141B1B",
"+	c #73A234",
"@	c #4B804B",
"#	c #C69469",
"$	c #71A135",
"%	c #4D814A",
"&	c #D2B37D",
"*	c #BD7959",
"=	c #965746",
"-	c #70A036",
";	c #709F36",
">	c #6B9B39",
",	c #6F9F36",
"'	c #4F8348",
")	c #62933E",
"!	c #60923F",
"~	c #72A234",
"{	c #73A334",
"]	c #4F8349",
"^	c #71A036",
"/	c #538746",
"(	c #6F9E37",
"_	c #5C8F41",
"                                                  ",
"                        ........                  ",
"             +@        .########.            $%   ",
"              +@    ...&&#######*...          $%  ",
"                   .&###&&######*###.             ",
"                  .&&&###&&####*#####.            ",
"   +@             .#&&&#######*#####*#..          ",
"  +@              .##&&&#####***###*####.         ",
"                  .#&&&&&&###******######.        ",
"                  .&&##&&&&##*****#######*.       ",
"                 .&&#########**#########**.       ",
"                .&&&########**&########***.       ",
"                .&&&#######**&&&&#####****.       ",
"                .&&&&######*&&&&&&&&&&****.       ",
"                .&&&&&#####*#&&&&&&&&&*****.      ",
"                .&&&&&########&&&&&&&#*###**.     ",
"               .&&&&&&&########&&&&########*.     ",
"              .&&&##############&&&#######***.    ",
"    +@       +.&&#################&&####*****.%   ",
"   +@         .&#####***###***#########******.$%  ",
"              .&####*****#******######*******.    ",
"              .&###*****#*********####*******.    ",
"              .&&##****##**********###*******.    ",
"@             .&&&*****###***********##****##.    ",
"              .#&#*****#####*****#***###**##*.    ",
"              .##***#***######**#***&&######*.    ",
"              .##**#*****#######***&&&&&###**.    ",
"              .##*#********####****&&&&&&&**=.    ",
" -            .#####**********=#****&&&&&&*==.  ;>",
",'            .#####*********==##*****&&##===. +)!",
"'             .#*###********===##****#**#====. ~! ",
"              .#*####******====###**#***====..    ",
"              .#*#####****====*#####******=...    ",
"    -         .#*##*##****==****####*******=..    ",
"   {]-         .*#***#*****#*****##********==.    ",
"    {'          .#********###**************==.    ",
"                .#*******######*****##****===.    ",
"                .#*****=#########**#####*====.    ",
"                .#****==##**####*==#*###=====.    ",
"                .#****==#*****#====#*****=====    ",
"                .#****==#*****=====#*****=====    ",
"                .#****==#****=**===#****==***=    ",
"                 #****==#***=****==#***==****=    ",
"     -            ****==#***=***===#***=*****=    ",
"    ,'             ***==#******====#***=****==    ",
"   {'              {**==#******====#***=***===    ",
"                        #*****=====#***=***==     ",
"                         *****===  #***= **=      ",
"-               -      +^ ****==       {^      +> ",
"]-             {]-     +/^             (/^     ~_>"};
