/* XPM */
static char * quickSand6_xpm[] = {
"50 50 21 1",
" 	c #74A334",
".	c #73A234",
"+	c #4B804B",
"@	c #71A135",
"#	c #4D814A",
"$	c #C69469",
"%	c #D2B37D",
"&	c #73A334",
"*	c #71A036",
"=	c #70A036",
"-	c #6B9B39",
";	c #538746",
">	c #709F36",
",	c #6F9F36",
"'	c #4F8348",
")	c #6F9E37",
"!	c #62933E",
"~	c #60923F",
"{	c #72A234",
"]	c #4F8349",
"^	c #5C8F41",
"                                                  ",
"                                                  ",
"             .+              @#              @#   ",
"              .+              @#              @#  ",
"                                                  ",
"                                                  ",
"   .+              .+              @#             ",
"  .+              .+              @#              ",
"                                                  ",
"                      $$$$$$                      ",
"                   $$$$$$$$$$$$                   ",
"                 $$$$$$$$$$$$$$$$                 ",
"                $$$$$$$$$%%%$$$$$$                ",
"               $$$$$$$$$$$$%%%%$$$$$              ",
"              $$$$%%%%%%%%%%%%%%%$$$$             ",
"             $$$%%%%%%%%%%%%%%%%%%$$$             ",
"            $$$%%%%%%%%%%%%%%%%%%%%$$$            ",
"           $$$%%%%%%%%%%%%%%%%%%%%%%$$$           ",
"    .+     $$%%%%%%%%%%%%%%%%%%%%%%%%$$      @#   ",
"   .+     $$%%%%%%%%%%%%$$$$%%%%%%%%%$$$      @#  ",
"          $%%%%%%%%%%$$$$$$$$$%%%%%%%%$$          ",
"          $%%%%%%%%$$$%%%%%$$$$%%%%%%%$$          ",
"         $%%%%%%%%$$$%%%%%%%%$$$%%%%%%$$          ",
"+        $%%%%%%%%$$%%%%%%%%%%$$%%%%%%$$$         ",
"         %%%%%%%%$$%%%%$$$%%%%%$$%%%%%$$$         ",
"         %%%%%%%%$$$%%$$%%$%%%%$$%%%%%$$$         ",
"         %%%%%%%%$$%%%$%%%$%%%%$$%%%%%$$$         ",
"         %%%%%%%%$$%%%$%%%%%%%%$$%%%%%$$    &*    ",
" =        %%%%%%%$$$%%$%%%%%%%%$%%%%%$$$   &-;  >-",
",'        %%%%%%%$$$%%%$%%%%%%$$%%%%$$$$   );  .!~",
"'         %%%%%%%$$$%%%%$%%$$$$%%%%%%%$$       {~ ",
"           %%%%%%$$$$%%%%%%%$$%%%%%%%$$           ",
"           %%%%%%$$$$$%%%%%%%%%%%%%%$$$&*         ",
"    =       %%%%%%$$$$$%%%%%%%%%%%%$$$ );*        ",
"   &]=       %%%%%$$$$$$%%%%%%%%$$$$$   );        ",
"    &'       %%%%%$$$$$$$$$$$$$$$$$$$             ",
"              %%%%%$$$$$$$$$$$$$$$$$              ",
"                %%%%%$$$$$$$$$$$$$                ",
"                 %%%%%%$$$$$$$$$$                 ",
"                   %%%%%%%$%$$$                   ",
"                      %%%%%%                      ",
"                                                  ",
"                                                  ",
"     =               =      &*              &*    ",
"    ,'              ,'     &-;             &-;    ",
"   &'              &'      );              );     ",
"                                                  ",
"                                                  ",
"=               =      .*              &*      .- ",
"]=             &]=     .;*             );*     {^-"};
