/* XPM */
static char * spirit2_xpm[] = {
"50 50 35 1",
" 	c #74A334",
".	c #73A234",
"+	c #4B804B",
"@	c #66902F",
"#	c #71A135",
"$	c #4D814A",
"%	c #557829",
"&	c #586162",
"*	c #466A74",
"=	c #547729",
"-	c #79B8CE",
";	c #141B1B",
">	c #8AB0BC",
",	c #9BA7AA",
"'	c #CDD3D4",
")	c #FFFFFF",
"!	c #9D9AA1",
"~	c #547829",
"{	c #71A036",
"]	c #70A036",
"^	c #3B3643",
"/	c #6B9B39",
"(	c #538746",
"_	c #709F36",
":	c #6F9F36",
"<	c #4F8348",
"[	c #51742B",
"}	c #62933E",
"|	c #60923F",
"1	c #72A234",
"2	c #73A334",
"3	c #4F8349",
"4	c #6F9E37",
"5	c #668F2F",
"6	c #5C8F41",
"                                                  ",
"                                                  ",
"             .+    @         #$              #$   ",
"              .+  %&%         #$              #$  ",
"                  %&%                             ",
"                   %                              ",
"   .+              .+              #$             ",
"  .+              .+              #$              ",
"                %%     %                          ",
"               %**%   %*%=                        ",
"              %*--*% %*-**%       %%              ",
"              ;----; ;----*%     %**%             ",
"              %*--*% ;-----*%   %*--*%            ",
"               %**%  ;-->---*%  %*---*%           ",
"               %;%  %*--,>---*%  ;----*%          ",
"             %%**%  ;---,,>---;  ;-----*%         ",
"            %**--; %*-->,,,>--*%%*-->---;         ",
"           %*----; ;---,,',,---;*---,>--*%        ",
"    .+    %*-----;%*-->,'),,---*-->>,,---;   #$   ",
"   .+    %*--->>-;*-->,'))',---->>,,',>--; %  #$  ",
"         ;--->,,-*-->,')))),>->>,,''),,--;%*%     ",
"        %*-->,,,>-->,'))))),,>,,''))',,--**-;     ",
"       %*-->,,',,>>,,))))))',,,,)))),,>-----;     ",
"+      ;---,,')',,,,,))))))),,,')))),,-->>>-;     ",
"      %*-->,,))),,,>,)))))))',,))))),,>>,,,-;     ",
"      ;---,,')))',>-,))))))))''))))),,,,,,>-;     ",
"      ;-->,,))))),>>,))))))))))))))),,'',,--;     ",
"     %*--,,')))))',,'))))!)))))))))),')),>-*~{    ",
" ]   ;---,,)))))))''))))!^!))))))))),))',--;/(  _/",
":<   ;---,,)))))))))))))^^^)))))))))')',>-*[(  .}|",
"<    ;---,,))))))))))!!)!^!)!!)))))))),,--;    1| ",
"     ;---,,)))))))))!^^!)!)!^^!))))))',>-*%       ",
"     %*--,,)))))))))^^^^)))^^^^)))))),,--;        ",
"    ] ;--,,)))))))))!^^!)))!^^!))))))',>-;        ",
"   23];-->,')))')))))!!)))))!!))))'))),,-*%       ",
"    2<%*--,,)))'''))))))))))))))'''))),,--;       ",
"       ;-->,')))'''''''''''''''''')))',>--;       ",
"       %*--,,)))))''''''''''''''))))),,---;       ",
"        ;-->,'')))))))))))))))))))))',>--*%       ",
"        %*-->,,')))))))))))))))))))',>---;        ",
"         %*-->,,'')))))))))))))))'',>---*%        ",
"          %*-->,,,'''))))))))'''',,>---*%         ",
"           %**->>,,,,'''''''',,,,>>---*%          ",
"     ]      %%**->>>,,,,,,,,,,,>>---**%     2{    ",
"    :<        %%**-->>>>>>>>>>>--***%%     2/(    ",
"   2<           %%***---------***%%%       4(     ",
"                  %%%*********%%%                 ",
"                     @@5@@@@@@                    ",
"]               ]      .{              2{      ./ ",
"3]             23]     .({             4({     16/"};
