/* XPM */
static char * spirit4_xpm[] = {
"50 50 57 1",
" 	c #74A334",
".	c #73A234",
"+	c #4B804B",
"@	c #71A135",
"#	c #4D814A",
"$	c #6D9A32",
"%	c #66902F",
"&	c #526A46",
"*	c #557829",
"=	c #4C6C50",
"-	c #466A74",
";	c #3F5923",
">	c #79B8CE",
",	c #658F2F",
"'	c #6091A1",
")	c #2D4248",
"!	c #547729",
"~	c #4B6C50",
"{	c #82B4C5",
"]	c #8AB0BC",
"^	c #92ABB3",
"/	c #9BA7AA",
"(	c #B4BDBF",
"_	c #CDD3D4",
":	c #E6E9EA",
"<	c #FFFFFF",
"[	c #427143",
"}	c #CECDD0",
"|	c #6C6872",
"1	c #65902F",
"2	c #71A036",
"3	c #70A036",
"4	c #9D9AA1",
"5	c #3B3643",
"6	c #5E8933",
"7	c #538746",
"8	c #709F36",
"9	c #6B9B39",
"0	c #6F9F36",
"a	c #4F8348",
"b	c #49773E",
"c	c #62933E",
"d	c #60923F",
"e	c #72A234",
"f	c #73A334",
"g	c #4F8349",
"h	c #699733",
"i	c #3F6153",
"j	c #486951",
"k	c #3D6435",
"l	c #6C9A32",
"m	c #457340",
"n	c #668F2F",
"o	c #618B32",
"p	c #4E7F42",
"q	c #6F9E37",
"r	c #5C8F41",
"                                                  ",
"                                                  ",
"             .+              @#              @#   ",
"              .+              @#              @#  ",
"             $$                                   ",
"            %&&%                                  ",
"   .+       %&&%   .+        %*%   @#             ",
"  .+         %%   .+        %=-=% @#              ",
"                           %;->-*                 ",
"                          %=---=%                 ",
"                  %**%   ,='>')*                  ",
"          %%     %=--=%  !->>>'=%                 ",
"         %==%   %='>>'=**~'>{{>'=%                ",
"        %='-*   *->>>>-)-'>>]^{>-*%*****%         ",
"       %='>'=%  *->>>>''>>{]^/]>'==-----=%        ",
"      %='{{>'=%%='>>>>>>{]^/((^{>''>>>>>'=%       ",
"      *->]^{>'=='>>>{]]]^/(_:_/]>>>>>>>>>-*       ",
"     $='{^/^{>'-'>{]^//(__:<:(/]>>{{>>>>'=%       ",
"    .[->]///^{>''{^/(__:<<<<_/^{>{^^{>>'=%   @#   ",
"   .+%->]////^]{{^/(:<<<<<<<_/]>{^//^{>-*     @#  ",
"     %->]/(_(//^^/(:<<<<<<<<:(^]^/((/]>-*         ",
"     %->{^(::_(///_<<<<<<<<<<:(//(:_/]'=*%        ",
"     $='>{^(:<:(//_<<<<<<<<<<<:__:<_/]-;==%       ",
"+     *->>]/_<<:((:<<<<<<<<<<<<<<<:(^{-)''=%      ",
"      %='>]/(:<<::<<<<<<<<<<<<<<<<_/^{''{{-*      ",
"       *->{^/_<<<<<<<<<<<<<<<::<<:(//^]]^]'=$     ",
"      %='>>]/_<<<<<<<<<}}<<<:((:<_/((////]>-%     ",
"      *->>{^/_<<<<<<<<}||}<<:((:<_(::_(//]>-12    ",
" 3    *->>]/(:<<<<<<<<4554<<<::<<::<<<:(/]>-67  89",
"0a    *->>]/_<<<<<<}4}}||}}4}<<<<<<<<:_(/]>-b  .cd",
"a    $='>{^(:<<<<<}|5|}}}}|5|}<<<<<<:(//^{'=$  ed ",
"     %->>]/_<<<<<<45554<<45554<<<<<:(/^]{>-*      ",
"     %->>]/_<<<<<<}|5|}<<}|5|}<<<<<:(/]>>'=%      ",
"    3%->>]/_<::<<<<}4}<<<<}4}<<<::<<_/]>>-*       ",
"   fgh='>]/(::__:<<<<<<<<<<<<<:__:<:(/]>'i%       ",
"    fa*->{^/_<:_________________:<<_/^{>-*        ",
"      %='>]/(:<<:_____________:<<<:(^{>'=%        ",
"       *->{^/(:<<<<<<<<<<<<<<<<<<:(^{>>-*         ",
"       %='>{^/(_:<<<<<<<<<<<<<<:_(^{>>'=%         ",
"        %='>{^//(_:<<<<<<<<<:__(/^{>>'=%          ",
"         %=-'{]^//(_________(//^]{>'-=%           ",
"          %*=-'{]]^//////////^]{>'-=*%            ",
"            %*=-'>{]]]]]]]]]]{>'-=*%              ",
"     3        %*=--'>>>>>>>>'--=*%          f2    ",
"    0a          %**=--------jk*%           f97    ",
"   fa              lm%%n%%%op              q7     ",
"                                                  ",
"                                                  ",
"3               3      .2              f2      .9 ",
"g3             fg3     .72             q72     er9"};
