/* XPM */
static char * spirit1_xpm[] = {
"50 50 34 1",
" 	c #74A334",
".	c #73A234",
"+	c #4B804B",
"@	c #71A135",
"#	c #4D814A",
"$	c #66902F",
"%	c #557829",
"&	c #466A74",
"*	c #141B1B",
"=	c #79B8CE",
"-	c #375E39",
";	c #547729",
">	c #8AB0BC",
",	c #9BA7AA",
"'	c #CDD3D4",
")	c #FFFFFF",
"!	c #9D9AA1",
"~	c #73A334",
"{	c #71A036",
"]	c #70A036",
"^	c #3B3643",
"/	c #6B9B39",
"(	c #538746",
"_	c #709F36",
":	c #6F9F36",
"<	c #4F8348",
"[	c #6F9E37",
"}	c #62933E",
"|	c #60923F",
"1	c #72A234",
"2	c #4F8349",
"3	c #547829",
"4	c #668F2F",
"5	c #5C8F41",
"                                                  ",
"                                                  ",
"             .+              @#              @#   ",
"              .+  $$          @#              @#  ",
"                 %&&%                             ",
"                 *==*                             ",
"   .+            %&&- %%           @#             ",
"  .+              ;- %&&%         @#              ",
"                    %&==&;     %                  ",
"                   %&====&%   %&%                 ",
"                  %&===>==*  %&=*                 ",
"            %     *===>,==* %&==*                 ",
"           %&%   %&===,,==&%&=>=*                 ",
"          %&=*   *===>,,>==*=>,=&%                ",
"          *==&%  *==>,,,,>=*=,,>=&%               ",
"         %&===&%%*=>,,'',,=&>,,,>=&%              ",
"         *==>==&&*=,,'))',>>,'',,>=&%             ",
"         *==,>>==&>,,))))',,'))',,>=&%            ",
"    .+   *==,,,>==,,'))))),'))')',,==&%      @#   ",
"   .+    *==,,,,>>,,))))))'))'>')',>==*  %    @#  ",
"         %&=,,,,,,,'))))))))),=,))',>=* %&%       ",
"          %&>,,',,,)))))))))),=,))),,=&%&=*       ",
"           *=,,)',')))))))))),>'))),,==*==&%      ",
"+          *=,,))')))))))))))'')))),,=&&>==*      ",
"          %&=,,)))))))))))))))))))',,=&>,==*      ",
"         %&=>,,)))'))))))))))))))),,,>>,,==*      ",
"        %&==,,'))',')))))))))))))),,,''',=&%      ",
"       %&==>,,)))','))))!))))))))),''))'>=* ~{    ",
" ]     *===,,'))))'))))!^!))))))))')))',=&%~/(  _/",
":<     *===,,))))))))))^^^)))))))))))',>&% [(  .}|",
"<     %&==>,')))))))!!)!^!)!!)))))))),,=&%     1| ",
"      *===,,)))))))!^^!)!)!^^!))))))',>==&%       ",
"      *===,,)))))))^^^^)))^^^^)))))),,====*       ",
"    ] *===,,)))))))!^^!)))!^^!))))))',>===*       ",
"   ~2]*===,,))')))))!!)))))!!))))'))),,===*       ",
"    ~<%&==,,')'''))))))))))))))'''))',,==&%       ",
"       *==>,,))''''''''''''''''''))),,>==*        ",
"       %&==,,')))''''''''''''''))))',>==&%        ",
"        %&=>,,')))))))))))))))))))',>===*         ",
"         %&=>,,''')))))))))))))''',>===&%         ",
"          %&=>,,,,''))))))))''',,,>===&%          ",
"           %&=>>,,,,'''''''',,,,>>==&&%           ",
"            %&&=>>>,,,,,,,,,,,>>==&&%%            ",
"     ]       %%&&==>>>>>>>>>>>==&&%%        ~{    ",
"    :<         %%&&&=========&&&%%         ~/(    ",
"   ~<            %%3&&&&&&&&&%%%           [(     ",
"                    $$$4$$$$$                     ",
"                                                  ",
"]               ]      .{              ~{      ./ ",
"2]             ~2]     .({             [({     15/"};
