/* XPM */
static char * tree_xpm[] = {
"50 50 384 2",
"  	c #74A334",
". 	c #1D251D",
"+ 	c #19201C",
"@ 	c #ADBC3A",
"# 	c #A6B539",
"$ 	c #73A234",
"% 	c #4B804B",
"& 	c #161D1B",
"* 	c #9CAA36",
"= 	c #94A135",
"- 	c #71A135",
"; 	c #4D814A",
"> 	c #141B1B",
", 	c #8D9A34",
"' 	c #AAB839",
") 	c #ACBB3A",
"! 	c #859232",
"~ 	c #151C1B",
"{ 	c #75812E",
"] 	c #A7B539",
"^ 	c #384022",
"/ 	c #909D34",
"( 	c #889532",
"_ 	c #3F4924",
": 	c #6D792D",
"< 	c #A6B439",
"[ 	c #ABBA3A",
"} 	c #A9B839",
"| 	c #66712C",
"1 	c #151D1B",
"2 	c #717D2E",
"3 	c #69752C",
"4 	c #515B27",
"5 	c #9DAC37",
"6 	c #85A134",
"7 	c #405926",
"8 	c #486428",
"9 	c #93AD37",
"0 	c #8FAB36",
"a 	c #435E27",
"b 	c #445F27",
"c 	c #87A234",
"d 	c #495326",
"e 	c #A2B038",
"f 	c #92B037",
"g 	c #6E9A32",
"h 	c #6F9C33",
"i 	c #97B238",
"j 	c #ACBC3A",
"k 	c #94B137",
"l 	c #6E9B33",
"m 	c #6F9B33",
"n 	c #95B137",
"o 	c #A1AF38",
"p 	c #424B24",
"q 	c #4D5726",
"r 	c #A9BA3A",
"s 	c #8CAD36",
"t 	c #96B238",
"u 	c #84AA36",
"v 	c #A8BA39",
"w 	c #A5B839",
"x 	c #87AB36",
"y 	c #93B137",
"z 	c #8EAE37",
"A 	c #AABA3A",
"B 	c #454F25",
"C 	c #434C25",
"D 	c #89AC36",
"E 	c #7AA535",
"F 	c #9CB538",
"G 	c #86AB36",
"H 	c #9EB538",
"I 	c #ABBB3A",
"J 	c #9CB438",
"K 	c #99B338",
"L 	c #9CAA37",
"M 	c #3C4523",
"N 	c #465025",
"O 	c #A7B939",
"P 	c #A3B739",
"Q 	c #8BAD36",
"R 	c #9EB638",
"S 	c #76A434",
"T 	c #A4B839",
"U 	c #A1B739",
"V 	c #77A434",
"W 	c #8BAD37",
"X 	c #9BB538",
"Y 	c #8DAE37",
"Z 	c #3E4724",
"` 	c #616B2A",
" .	c #88AC36",
"..	c #7CA635",
"+.	c #7FA835",
"@.	c #7BA635",
"#.	c #5A6529",
"$.	c #424C24",
"%.	c #97A636",
"&.	c #81A935",
"*.	c #80A935",
"=.	c #78A534",
"-.	c #79A535",
";.	c #98B338",
">.	c #95A435",
",.	c #3B4523",
"'.	c #2E4022",
").	c #698F30",
"!.	c #A6B939",
"~.	c #80A835",
"{.	c #A7BA39",
"].	c #A5B939",
"^.	c #8AAC36",
"/.	c #8FAF37",
"(.	c #678D30",
"_.	c #2A3A20",
":.	c #2A3A21",
"<.	c #628A2F",
"[.	c #85AA36",
"}.	c #82A935",
"|.	c #AABB3A",
"1.	c #81A835",
"2.	c #61882F",
"3.	c #253420",
"4.	c #2D3E21",
"5.	c #75A334",
"6.	c #7AA635",
"7.	c #283620",
"8.	c #323B21",
"9.	c #869632",
"0.	c #91AF37",
"a.	c #85AB36",
"b.	c #95B238",
"c.	c #93B037",
"d.	c #859432",
"e.	c #2C341F",
"f.	c #2D3520",
"g.	c #869332",
"h.	c #90AF37",
"i.	c #9BB438",
"j.	c #A8BA3A",
"k.	c #83A936",
"l.	c #7EA735",
"m.	c #83AA36",
"n.	c #849132",
"o.	c #262E1E",
"p.	c #262E1F",
"q.	c #828F31",
"r.	c #9AB438",
"s.	c #9AB338",
"t.	c #9FB638",
"u.	c #8AAD36",
"v.	c #9DB538",
"w.	c #7F8C31",
"x.	c #1F261D",
"y.	c #272F1F",
"z.	c #7DA735",
"A.	c #A1B639",
"B.	c #A2B739",
"C.	c #1F271D",
"D.	c #6A9A3A",
"E.	c #66973C",
"F.	c #8CAD37",
"G.	c #64953D",
"H.	c #6B9B39",
"I.	c #232D1E",
"J.	c #6D9D38",
"K.	c #60923F",
"L.	c #729D3C",
"M.	c #709B3D",
"N.	c #6E9E37",
"O.	c #1D261D",
"P.	c #4A6328",
"Q.	c #8BAC37",
"R.	c #6C9C38",
"S.	c #6A9B3A",
"T.	c #465E28",
"U.	c #212E1E",
"V.	c #3E5726",
"W.	c #546E2A",
"X.	c #82A936",
"Y.	c #A0B739",
"Z.	c #90B037",
"`.	c #9EB639",
" +	c #4F6929",
".+	c #1E281E",
"++	c #1F2A1E",
"@+	c #617A2D",
"#+	c #A0B639",
"$+	c #9FB639",
"%+	c #8EAF37",
"&+	c #7CA735",
"*+	c #5B762C",
"=+	c #1C261D",
"-+	c #283720",
";+	c #97B338",
">+	c #8CAE37",
",+	c #79A534",
"'+	c #87AC36",
")+	c #79A435",
"!+	c #23301F",
"~+	c #24321F",
"{+	c #506F2B",
"]+	c #99B438",
"^+	c #4D6C2A",
"/+	c #212D1E",
"(+	c #70A036",
"_+	c #2C3C21",
":+	c #74A234",
"<+	c #273520",
"[+	c #538746",
"}+	c #709F36",
"|+	c #6F9F36",
"1+	c #4F8348",
"2+	c #55762C",
"3+	c #92B137",
"4+	c #68993A",
"5+	c #699A3A",
"6+	c #52732B",
"7+	c #62933E",
"8+	c #2B3B21",
"9+	c #587A2D",
"0+	c #5F9140",
"a+	c #6C9C39",
"b+	c #64963D",
"c+	c #72A135",
"d+	c #71A036",
"e+	c #65963C",
"f+	c #6A9B39",
"g+	c #55772C",
"h+	c #273620",
"i+	c #72A234",
"j+	c #2D3F22",
"k+	c #4C6A2A",
"l+	c #5C812E",
"m+	c #60872F",
"n+	c #577F34",
"o+	c #5E9040",
"p+	c #61933E",
"q+	c #61933F",
"r+	c #5F913F",
"s+	c #567D33",
"t+	c #628A30",
"u+	c #5A7E2D",
"v+	c #334623",
"w+	c #4E6C2A",
"x+	c #394F25",
"y+	c #29422E",
"z+	c #588236",
"A+	c #63943D",
"B+	c #60913F",
"C+	c #518547",
"D+	c #557E36",
"E+	c #273F2C",
"F+	c #3C5325",
"G+	c #304222",
"H+	c #3C5426",
"I+	c #658E30",
"J+	c #66973B",
"K+	c #4D8149",
"L+	c #4A7F4B",
"M+	c #62943D",
"N+	c #4E8349",
"O+	c #67983B",
"P+	c #648B30",
"Q+	c #3A5025",
"R+	c #73A334",
"S+	c #4F8349",
"T+	c #3F5826",
"U+	c #689131",
"V+	c #64953C",
"W+	c #4E8249",
"X+	c #4F8448",
"Y+	c #69993A",
"Z+	c #668F30",
"`+	c #3D5426",
" @	c #6F9E37",
".@	c #425C27",
"+@	c #53742C",
"@@	c #618D37",
"#@	c #508447",
"$@	c #3B643D",
"%@	c #477A48",
"&@	c #467847",
"*@	c #3C653E",
"=@	c #528546",
"-@	c #608B37",
";@	c #405826",
">@	c #312925",
",@	c #595F41",
"'@	c #43633F",
")@	c #1E2D23",
"!@	c #355738",
"~@	c #5E7048",
"{@	c #637249",
"]@	c #4B7E4B",
"^@	c #4C7E4B",
"/@	c #5C6F47",
"(@	c #335537",
"_@	c #203126",
":@	c #45643F",
"<@	c #575C3F",
"[@	c #2F2724",
"}@	c #6D4438",
"|@	c #965746",
"1@	c #51372F",
"2@	c #3A2D28",
"3@	c #A1583F",
"4@	c #985746",
"5@	c #637149",
"6@	c #61724A",
"7@	c #62724A",
"8@	c #667049",
"9@	c #995846",
"0@	c #9B563E",
"a@	c #392C28",
"b@	c #563931",
"c@	c #664136",
"d@	c #5A3B32",
"e@	c #8B5242",
"f@	c #955746",
"g@	c #4B342D",
"h@	c #885041",
"i@	c #DB6B3B",
"j@	c #9C5945",
"k@	c #AC5D43",
"l@	c #AA5D43",
"m@	c #A05A44",
"n@	c #D7693C",
"o@	c #834E40",
"p@	c #50372F",
"q@	c #8A5142",
"r@	c #5F3D34",
"s@	c #73473A",
"t@	c #74473A",
"u@	c #915544",
"v@	c #E16C3A",
"w@	c #AB5D43",
"x@	c #E46D3A",
"y@	c #DF6C3B",
"z@	c #B25F42",
"A@	c #8F5444",
"B@	c #151B1B",
"C@	c #3E2B21",
"D@	c #8A5141",
"E@	c #AE5D42",
"F@	c #E26C3A",
"G@	c #864F3F",
"H@	c #3B2A21",
"I@	c #412C21",
"J@	c #C56135",
"K@	c #B15E42",
"L@	c #CE673D",
"M@	c #E36D3A",
"N@	c #CB663E",
"O@	c #B45F41",
"P@	c #BC5D34",
"Q@	c #402C21",
"R@	c #3F2C21",
"S@	c #BE5E34",
"T@	c #AD5D43",
"U@	c #D5693C",
"V@	c #DC6B3B",
"W@	c #B05E42",
"X@	c #B55A33",
"Y@	c #A65B44",
"Z@	c #A95C43",
"`@	c #D76A3C",
" #	c #D96A3C",
".#	c #A75C44",
"+#	c #D86A3C",
"@#	c #DE6B3B",
"##	c #AA5C43",
"$#	c #DA6A3B",
"%#	c #A25A44",
"&#	c #A45B44",
"*#	c #DA6A3C",
"=#	c #E06C3B",
"-#	c #9D5945",
";#	c #A05A45",
">#	c #E16C3B",
",#	c #D4693C",
"'#	c #DD6B3B",
")#	c #5C8F41",
"                                                . .                                                 ",
"                                          + + + @ # + + +                                           ",
"                          $ %         & & * @ @ @ @ @ @ = & &                             - ;       ",
"                            $ & & & > , ' @ @ @ @ @ @ @ ) ' ! ~ & & &                       - ;     ",
"                            & { ] ] ^ / @ @ @ @ @ @ @ @ @ @ ( _ ] ] : &                             ",
"                          > : ' @ @ < [ @ @ @ @ @ @ @ @ @ @ [ # @ @ } |                             ",
"      $ %           & &   1 2 @ @ @ @ @ @ @ @ @ @ @ @ @ @ @ @ @ @ @ @ 3 1   & &                     ",
"    $ %           4 5 6 7 8 9 @ @ @ @ @ @ @ @ @ @ @ @ @ @ @ @ @ @ @ @ 0 a b c 5 d                   ",
"                d e @ f g h i @ @ @ @ @ j @ @ @ @ @ @ @ @ j @ @ @ @ @ k l m n @ o p                 ",
"                q @ @ r s   t @ @ @ @ j u v @ @ @ @ @ @ w x j @ @ @ @ y   z A @ @ B                 ",
"              C 5 @ @ @ v D E F @ @ j G H j @ @ @ @ @ @ I J D j @ @ K E s r @ @ @ L M               ",
"              N ) @ @ @ @ O P Q R j D S T @ @ @ @ @ @ @ @ U V W j X Y P v @ @ @ @ ) Z               ",
"                ` @ @ @ @ j j  ...+.V   T @ @ @ @ @ @ @ @ U   V +.@.Q j j @ @ @ @ #.                ",
"              $.%.@ @ @ t &.*.=.        T @ @ @ @ @ @ @ @ U         -.*.&.;.@ @ @ >.,.              ",
"            '.).f @ @ @ !.x             ~.{.@ @ @ @ @ @ ].+.            ^.O @ @ @ /.(._.            ",
"          :.<.  D @ @ @ @ w [.            }.|.@ @ @ @ v 1.            x ].@ @ @ @ G   2.3.          ",
"          4.5.  6.k j @ @ @ Q           5.K ) @ @ @ @ I t 5.          z @ @ @ j f -.  5.7.          ",
"        8.9.0.    @.a.K @ @ P }.  5.5.  b.I @ @ @ @ @ @ |.y   5.    u T @ @ i a.6.  5.c.d.e.        ",
"      f.g.@ v z     a.T @ @ @  .5.h.i...u j.@ @ @ @ @ @ !.k.l.i.z 5.Q @ @ @ P m.    h.r @ n.o.      ",
"    p.q.@ @ @ r.    Y @ @ @ t y s.v @ H s.^.|.@ @ @ @ j.Q s.t.@ O s.c.;.@ @ @ u.    v.@ @ @ w.x.    ",
"    y.@ @ @ @ r.    z.r.@ @ A.!.@ @ @ @ @ i.) @ @ @ @ |.J @ @ @ @ @ w B.@ @ ;...    v.@ @ @ @ C.    ",
"    y.j @ @ @ i.  D.E./.@ @ @ @ @ @ @ @ @ @ @ @ @ @ @ @ @ @ @ @ @ @ @ @ @ @ F.G.H.  H @ @ @ j C.    ",
"    I.h.j j @ !.^.J.K.L.F @ @ @ @ @ @ @ @ @ @ @ @ @ @ @ @ @ @ @ @ @ @ @ @ i.M.K.N.s O @ j j z O.    ",
"%     P.Q.W t @ ;.  R.H.&.R @ @ @ @ @ @ @ j @ @ @ @ @ @ @ @ @ @ @ @ @ @ F ~.S.J.  i.@ k W Q.T.      ",
"      U.V.W.i.@ T x 5.u u X.Y.j i T @ @ @ Z.I @ @ @ @ r f @ @ @ B.;.j `.&.[.}.5.D ].@ r. +V..+      ",
"        ++@+@ @ @ B.c.#+$+}.u %+&+x ].@ @ 6.j.@ @ @ @ ].z.@ @ T a.l.%+k.m.U H c.T @ @ @ *+=+        ",
"        -+E ;+@ @ @ @ @ @ H ~.      D O k V Y j j j |.>+,+b.].'+      &.$+@ @ @ @ @ @ t )+!+        ",
"        ~+{+&+]+@ @ @ @ @ @ u.        Q =.    /.Z.Z.z     6.D         Y @ @ @ @ @ @ ;.@.^+/+        ",
"  (+      _+:+l.i.@ @ @ @ v.+.                                        &.$+@ @ @ @ r.&+:+<+[+    }+H.",
"|+1+      -+2+:++.3+3+3+3+&.4+J.                                    R.5+k.3+3+3+3+l.:+6+~+    $ 7+K.",
"1+          8+9+:+:+    :+5+0+a+        b+c+            d+e+        H.0+f+:+    :+:+g+h+      i+K.  ",
"              j+k+l+:+m+n+o+H.          K.p+c+        - p+q+          5+r+s+t+:+u+k+:.              ",
"                > v+w+x+y+z+              1+p+A+  $ A+B+C+              D+E+F+w+G+>                 ",
"        (+          >     H+I+          J+K+L+L+G.M+L+L+N+O+          P+Q+    > [+d+                ",
"      R+S+(+                T+U+:+  4+V+W+L+L+L+L+L+L+L+L+X+V+Y+  :+Z+`+         @[+                ",
"        R+1+                  .@+@@@#@$@%@L+L+L+L+L+L+L+L+&@*@=@-@+@;@                              ",
"                              > >@,@'@)@!@~@{@]@L+L+^@{@/@(@_@:@<@[@>                               ",
"                              > }@|@1@  2@3@4@5@6@7@8@9@0@a@  b@|@c@>                               ",
"                                d@e@f@g@h@i@j@k@|@k@l@m@n@o@p@f@q@b@                                ",
"                                > r@s@t@u@i@j@v@w@x@y@z@n@A@t@s@d@                                  ",
"                                  > B@C@D@i@E@F@x@x@x@x@n@G@H@B@>                                   ",
"                                    I@J@K@L@M@x@x@x@x@F@N@O@P@Q@                                    ",
"                                  R@S@x@x@T@y@U@x@M@U@V@W@x@x@X@R@                                  ",
"          (+                      x@x@x@x@x@n@Y@x@v@Z@`@x@x@x@x@x@                      R+d+        ",
"        |+1+                      x@x@x@ #`@.#F@`@+#@###`@$#x@x@x@                    R+H.[+        ",
"      R+1+                           # #%#|@@# #%#&# #*#|@Y@ # #                       @[+          ",
"                                    |@|@  |@@#9@x@=#-#*#|@  |@|@                                    ",
"                                          |@`@;#x@>#&#,#|@                                          ",
"(+                              (+          |@v@x@x@'#|@                      R+d+            $ H.  ",
"S+(+                          R+S+(+          $ [+d+                           @[+d+          i+)#H."};
