/* XPM */
static char * flameHit1_xpm[] = {
"50 50 44 1",
" 	c #74A334",
".	c #73A234",
"+	c #4B804B",
"@	c #E0394C",
"#	c #71A135",
"$	c #4D814A",
"%	c #F06750",
"&	c #FF9554",
"*	c #141B1B",
"=	c #AE303E",
"-	c #593625",
";	c #A52D3A",
">	c #B6383F",
",	c #4E3123",
"'	c #C53343",
")	c #FFBB70",
"!	c #FFE18D",
"~	c #FFF0C6",
"{	c #FFFFFF",
"]	c #CB3445",
"^	c #F2B69C",
"/	c #E46D3A",
"(	c #70A036",
"_	c #709F36",
":	c #6B9B39",
"<	c #6F9F36",
"[	c #4F8348",
"}	c #62933E",
"|	c #60923F",
"1	c #73A334",
"2	c #4F8349",
"3	c #AC2F3D",
"4	c #AA2E3B",
"5	c #D33648",
"6	c #B5303E",
"7	c #B0313F",
"8	c #B2313F",
"9	c #BC3140",
"0	c #71A036",
"a	c #538746",
"b	c #6F9E37",
"c	c #B73241",
"d	c #72A234",
"e	c #5C8F41",
"                                                  ",
"                                                  ",
"             .+   @@@@@@     #$              #$   ",
"              .+ @%&&&&%@  @@@@$              #$  ",
"                 *=%&&&&%@@%&&%@@                 ",
"             --***@;%&&&&%@@%&&&%@                ",
"   .+      @@>,'@;@%&)!)&&%@%&&&&%@#$             ",
"  .+     @@%&%;@@%&&&)!!)&&%%&&&&&%@              ",
"        @%&&&%@%&&&&&)!!!)&&&))&&&%@              ",
"       @%&&&%%&&&&)!))!!!!)&&)!)&&&%@             ",
"      @%&&&%@%&&)!!!!!!~~!!)&)!!)&&%@             ",
"     @%&&))&&&)!!!!!!!!~{~!))!!!!)&&%;            ",
"    @%&&)!)&&)!!~{{~!!!~{~!))!!!!)&&&%@@          ",
"    @%&)!!!)&)~{{{~!!!~{{{~!!!!~~!)&&&&%] @@@     ",
"    @%&)!!!)&)~{{{~!!!~{{{~!!!!~~!)&&&&%;]%&%@    ",
"   @%&&)!!!!!~{{{~!!!~{{{{~!!!~{{~!)))&&%%&&&%@   ",
"   @%&)!!~~!!~{{~!~{{{{{{{{~!!~{{~!!!!)&&&&&&%@   ",
"  @%&&)!~{~!!~{{{{{{{{{{{{{~!~{{{~!!!!)&&&&&%@    ",
"  @%&&)!~{{~!~{{{{{{{{{{{{{~~{{{{~!!~~!)&&%@@#$   ",
"  @%&&)!~{{{~~{{{{{{{{^^{{{{{{{{{~!!~~!)&&%;  #$  ",
"  @%&&)!~{{{{{{{^/^{{^//^{{{{{{{{~!~{{~!)&&%;     ",
"  @%&&)!~{{{{{{^///^{^//^{{{{{{{{{{{{{~!)&&%;     ",
"  @%&&)!~{{{{{{^///^{^//^{{{{{{{{{{{{{~!)&&%;     ",
"+ @%&)!!!~{{{{{^///^{^^^^{{{{{{{{{{{{{~!)&&%;     ",
"  %&)!!!!~{{{{{^^{^^{^^^^{{{{{{{{{{{{~!!!)&%;     ",
"  %&)!~~!~{{{{{^^{^^{^//^{{{^/^{{{{{~!!!!!)&%@    ",
"  %&)!~{~!~{{{{{^/^{{{^^{^/////^{{{{{{{~!!!)&%@   ",
"  %&)!~{{{{{{{{{{{{{{{{{^^{{^//^{{{{{{{{~!!!)&%@  ",
" (@%&)!~{{{{{{{{~~{{{{{{^^{{^/^{{{{{{{{{{~!!!)&%_:",
"<[ @%&)!~{{{{{{~!~{{~~{{{^//^{{{{{{{{{{{{{~!!)&%}|",
"[  @%&)!~{{{{{~!!!~~!!~{{{{{{{{{{{{{{{{{~!!!)&%@| ",
"   @%&)!~{{{{~!!!!!!!!!~~~{{{{{{{{{{{{~!!!)&&%@   ",
"    @%&)!~{{{~!!!!!!!!!!!!~{{{{{{{{{{~!!)&&&%@    ",
"    (]%&)!~{{~~{~!!!!!!!!!!~{{{{{{{{~!)&&&%@@     ",
"   12(3%&)!~{{{{~!!~~!!!!!!~{{{{{{{{~)&&%@;       ",
"    1[4%&)!~{{{{~!~{{~!!~~!!~{{{{{{{~)&&%;*       ",
"     @%&&)!~{{{{~!~{{~!!~~!!~{{{{{{{~)&&%5*       ",
"     @%&&&)!~{{{~~{{{~!~{~!!~{{{{{{{~!!)&%;       ",
"     @%&&&&)!~{{{{{{{~~{{{{~~{{{{{{{{~!!)&%@      ",
"      @%&%%&)~{{{{{{{{{{{{{{{{{{{{{{{{{~!)&%@     ",
"       @@67%&)!~{{{{{{{{{{{{{{{{{{{{{~!!)&%@      ",
"          *=%)!!!!~{{{{{{{{{{~!!!~{{~!!)&%@       ",
"           *8%&)!!!!!~{{{{~!!!!!!!!!!)&&%@        ",
"     (      9%&&&&)!!!!!!!!!!)&&&)!!)&&%@   10    ",
"    <[       @@%&&&&&)!!!!)&&&&&&&&&&%@@   1:a    ",
"   1[          @@@%&&&&&&&&&&%@@@%&&%@     ba     ",
"                  9@@%&&&&%@@c***@@@@             ",
"                     ]@@@@]                       ",
"(               (      .0              10      .: ",
"2(             12(     .a0             ba0     de:"};
