/* XPM */
static char * flameHit3_xpm[] = {
"50 50 29 1",
" 	c #74A334",
".	c #73A234",
"+	c #4B804B",
"@	c #141B1B",
"#	c #71A135",
"$	c #4D814A",
"%	c #7A2A34",
"&	c #E0394C",
"*	c #E25343",
"=	c #E46D3A",
"-	c #EA7F44",
";	c #EF914F",
">	c #825635",
",	c #8A8D8D",
"'	c #FFFFFF",
")	c #70A036",
"!	c #709F36",
"~	c #6B9B39",
"{	c #6F9F36",
"]	c #4F8348",
"^	c #62933E",
"/	c #60923F",
"(	c #73A334",
"_	c #4F8349",
":	c #71A036",
"<	c #538746",
"[	c #6F9E37",
"}	c #72A234",
"|	c #5C8F41",
"                                                  ",
"                                                  ",
"             .+   @@@@@@     #$              #$   ",
"              .+ @%&&&&%@  @@@@$              #$  ",
"                  @%&&&&%@@%&&%@@                 ",
"                   @%&&&&%@@%&&&%@                ",
"   .@@@@   @@@   @@%&*=*&&%@%&&&&%@#$             ",
"  .@%&&%@@@%&%@@@%&&&*==*&&%%&&&&&%@              ",
"  @%&&&&%%&&&%@%&&&&&*===*&&&**&&&%@              ",
"  @%&&&&&&&&%%&&&&*=**====*&&*=*&&&%@             ",
"  @%&&&&&&&%@%&&*======--==*&*==*&&%@             ",
"   @%&&&&**&&&*========-;-=**====*&&%@            ",
"    @%&&*=*&&*==-;;-===-;-=**====*&&&%@@          ",
"    @%&*===*&*-;;;-===-;;;-====--=*&&&&%@    @@@  ",
"    @%&*===*&*-;;;-===-;;;-====--=*&&&&%@   @%&%  ",
"   @%&&*=====-;;;-===-;;;;-===-;;-=***&&%@  @%&%  ",
"   @%&*==--==-;;-=-;;;;;;;;-==-;;-====*&&%@  @@@  ",
"  @%&&*=-;-==-;;;;;;;;;;;;;-=-;;;-====*&&%@       ",
"  @%&&*=-;;-=-;;;;;;;;;;;;;--;;;;-==--=*&&%@ #$   ",
"  @%&&*=-;;;--;;;;;;;;>>;;;;;;;;;-==--=*&&%@  #$  ",
"  @%&&*=-;;;;;;;>@>;;>@@>;;;;;;;;-=-;;-=*&&%@     ",
"  @%&&*=-;;;;;;>@@@>;>@@>;;;;;;;;;;;;;-=*&&%@     ",
"  @%&&*=-;;;;;;>@@@>;>@@>;;;;;;;;;;;;;-=*&&%@     ",
"+ @%&*===-;;;;;>@@@>;>,,>;;;;;;;;;;;;;-=*&&%@     ",
"  %&*====-;;;;;>,',>;>,,>;;;;;;;;;;;;-===*&%@     ",
"  %&*=--=-;;;;;>,',>;>@@>;;;>@>;;;;;-=====*&%@    ",
"  %&*=-;-=-;;;;;>@>;;;>>;>@@@@@>;;;;;;;-===*&%@   ",
"  %&*=-;;;;;;;;;;;;;;;;;>,'',@@>;;;;;;;;-===*&%@  ",
" )@%&*=-;;;;;;;;--;;;;;;>,'',@>;;;;;;;;;;-===*&%!~",
"{] @%&*=-;;;;;;-=-;;--;;;>@@>;;;;;;;;;;;;;-==*&%^/",
"]  @%&*=-;;;;;-===--==-;;;;;;;;;;;;;;;;;-===*&%@/ ",
"   @%&*=-;;;;-=========---;;;;;;;;;;;;-===*&&%@   ",
"    @%&*=-;;;-============-;;;;;;;;;;-==*&&&%@    ",
"    )@%&*=-;;--;-==========-;;;;;;;;-=*&&&&&%@    ",
"   (_)@%&*=-;;;;-==--======-;;;;;;;;-*&&&&&&&%@   ",
"    (]@%&*=-;;;;-=-;;-==--==-;;;;;;;-*&&&&&&&%@   ",
"      @%&*=-;;;;-=-;;-==--==-;;;;;;;-*&&&&&&&%@   ",
"       @%&*=-;;;--;;;-=-;-==-;;;;;;;-==*&&&%@@    ",
"   @@@  @%&*=-;;;;;;;--;;;;--;;;;;;;;-==*&%@      ",
"  @%&%@  @%&*-;;;;;;;;;;;;;;;;;;;;;;;;;-=*&%@     ",
"  @%&%@   @%&*=-;;;;;;;;;;;;;;;;;;;;;-==*&%@      ",
"   @@@     @%*====-;;;;;;;;;;-===-;;-==*&%@       ",
"            @%&*=====-;;;;-==========*&&%@        ",
"     )      @%&&&&*==========*&&&*==*&&%@   (:    ",
"    {]       @@%&&&&&*====*&&&&&&&&&&%@@   (~<    ",
"   (]          @@@%&&&&&&&&&&%@@@%&&%@     [<     ",
"                  @@@%&&&&%@@@   @@@@             ",
"                     @@@@@@                       ",
")               )      .:              (:      .~ ",
"_)             (_)     .<:             [<:     }|~"};
