/* XPM */
static char * flame4_xpm[] = {
"50 50 41 1",
" 	c #74A334",
".	c #73A234",
"+	c #4B804B",
"@	c #71A135",
"#	c #4D814A",
"$	c #593625",
"%	c #141B1B",
"&	c #58252B",
"*	c #7A2A34",
"=	c #E0394C",
"-	c #AD3240",
";	c #472227",
">	c #E14648",
",	c #E25343",
"'	c #E3603E",
")	c #E46D3A",
"!	c #E7763F",
"~	c #EA7F44",
"{	c #EC884A",
"]	c #EF914F",
"^	c #B87442",
"/	c #4B3828",
"(	c #825635",
"_	c #485052",
":	c #7C8688",
"<	c #73A334",
"[	c #71A036",
"}	c #70A036",
"|	c #6B9B39",
"1	c #538746",
"2	c #709F36",
"3	c #6F9F36",
"4	c #4F8348",
"5	c #62933E",
"6	c #60923F",
"7	c #7E6E5E",
"8	c #72A234",
"9	c #E3F1F5",
"0	c #4F8349",
"a	c #6F9E37",
"b	c #5C8F41",
"                                                  ",
"                                                  ",
"             .+              @#              @#   ",
"              .+              @#              @#  ",
"                                                  ",
"             $$                                   ",
"   .+        $$    .+         %    @#             ",
"  .+              .+         &*&  @#              ",
"                            %*=*%                 ",
"                           &***&                  ",
"                   %%     &-=-;%                  ",
"                  &**&   %*===-&                  ",
"          &&     &-==-&%%&-=>>=-&                 ",
"         &-*%   %*====*;*-==,'>=*% %%%%%          ",
"        &-=-&   %*====--==>,'),=-&&*****&         ",
"       &->>=-&  &-======>,')!!'>=--=====-&        ",
"      %*=,'>=-&&-===>,,,')!~{~),=========*%       ",
"      &->')'>=-*-=>,'))!~~{]{!),==>>====-&        ",
"    .+*=,)))'>=-->')!~~{]]]]~)'>=>''>==-&    @#   ",
"   .+ *=,))))',>>')!{]]]]]]]~),=>'))'>=*%     @#  ",
"      *=,)!~!))'')!{]]]]]]]]{!',')!!),=*%         ",
"      *=>'!{{~!)))~]]]]]]]]]]{!))!{~),-&%         ",
"      &-=>'!{]{!))~]]]]]]]]]]]{~~{]~),*%&&        ",
"+     %*==,)~]]{!!{]]]]^^]]]]]]]]]{!'>*;--&       ",
"       &-=,)!{]]{{]]]]^//^]]]]]]]]~)'>-->>*%      ",
"       %*=>')~]]]]]]]](__(]]]]]]]{!))',,',-&      ",
"       &-==,)~]]]^^]]](::(]]]^^]]~)!!)))),=*      ",
"      %*==>')~]]^//^]](::(]]^//^]~!{{~!)),=*<[    ",
" }    %*==,)!{]](%%/^](__(]^/%%(]{{]]]{!),=*|1  2|",
"34    %*==,)~]]](%%%/^^//^^/%%%(]]]]]{~!),=*1  .56",
"4     &-=>'!{]]]^/%_:7^^^^7:_%/^]]]]{!))'>-&   86 ",
"      *==,)~]]]]]^/:9:(]](:9:/^]]]]{!)',>=*%      ",
"      *==,)~]]]]]]^7:_(]](_:7^]]]]]{!),==-&       ",
"    } *==,)~]{{]]]]^((^]]^((^]]]{{]]~),==*%       ",
"   <0}&-=,)!{{~{]{~~{]]]]]{~~{]{~{]{!),=-&        ",
"    <4%*=>')~]{~~~~~~~~~~~~~~~~~{]]~)'>=*%        ",
"       &-=,)!{]{~{]]{~~~~~{]]{~{]]{!'>=-&         ",
"       %*=>')!{]]]]]]]]]]]]]]]]]]{!'>==*%         ",
"        &-=>')!~{]]]]]]]]]]]]]]{~!'>==-&          ",
"         &-=>'))!~{]]]]]]]]]{~~!)'>==-&           ",
"          &*->,'))!~~~~~~~~~!))',>=-*&            ",
"           %&*->,,'))))))))))',>=-*&%             ",
"             %&*-=>,,,,,,,,,,>=-*&%               ",
"     }         %&**-========-**&%           <[    ",
"    34           %%&********&%%            <|1    ",
"   <4              <4      a1              a1     ",
"                                                  ",
"                                                  ",
"}               }      .[              <[      .| ",
"0}             <0}     .1[             a1[     8b|"};
