/* XPM */
static char * flame2_xpm[] = {
"50 50 31 1",
" 	c #74A334",
".	c #73A234",
"+	c #4B804B",
"@	c #71A135",
"#	c #4D814A",
"$	c #141B1B",
"%	c #7C442A",
"&	c #7A2A34",
"*	c #E0394C",
"=	c #E25343",
"-	c #E46D3A",
";	c #EA7F44",
">	c #EF914F",
",	c #825635",
"'	c #E8654E",
")	c #7C8688",
"!	c #E3F1F5",
"~	c #71A036",
"{	c #70A036",
"]	c #6B9B39",
"^	c #538746",
"/	c #709F36",
"(	c #6F9F36",
"_	c #4F8348",
":	c #62933E",
"<	c #60923F",
"[	c #72A234",
"}	c #73A334",
"|	c #4F8349",
"1	c #6F9E37",
"2	c #5C8F41",
"                                                  ",
"                                                  ",
"             .+              @#              @#   ",
"              .+  $%$         @#              @#  ",
"                  $%$                             ",
"                   $                              ",
"   .+              .+              @#             ",
"  .+              .+              @#              ",
"                $$     $                          ",
"               $&&$   $&$$                        ",
"              $&**&$ $&*&&$       $$              ",
"              $****$ $****&$     $&&$             ",
"              $&**&$ $*****&$   $&**&$            ",
"               $&&$  $**=***&$  $&***&$           ",
"               $$$  $&**-=***&$  $****&$          ",
"             $$&&$  $***--=***$  $*****&$         ",
"            $&&**$ $&**=---=**&$$&**=***$         ",
"           $&****$ $***--;--***$&***-=**&$        ",
"    .+    $&*****$$&**=-;>--***&**==--***$   @#   ",
"   .+    $&***==*$&**=-;>>;-****==--;-=**$ $  @#  ",
"         $***=--*&**=-;>>>>-=*==--;;>--**$$&$     ",
"        $&**=---=**=-;>>>>>--=--;;>>;--**&&*$     ",
"       $&**=--;--==-->>>>>>;---->>>>--=*****$     ",
"+      $***--;>;----->>>>>>>---;>>>>--**===*$     ",
"      $&**=-->>>---=;>>>>,>>;-->>>>>--==---*$     ",
"      $***--;>>>;-='>>>>,$,>>;;>>>>>------=*$     ",
"      $**=-->>>>>-'>>>>>$)$>>>>>>>>>--;;--**$     ",
"     $&**--;>>>>>;>,>>>>$!$>>>>,>>>>-;>>-=*&$~    ",
" {   $***-->>>>>>>,$,>>>$!$>>>,$,>>>->>;-**$]^  /]",
"(_   $***-->>>>>>>$$$,>>$)$>>,$$$>>>;>;-=*&$^  .:<",
"_    $***-->>>>>>>$$$$,>,$,>,$$$$>>>>>--**$    [< ",
"     $***-->>>>>>>,$$)),>,>,))$$,>>>>;-=*&$       ",
"     $&**-->>>>>>>>,$!!$>>>$!!$,>>>>>--**$        ",
"    { $**-->>>>>>>>>,))$>>>$)),>>>>>>;-=*$        ",
"   }|{$**=-;>>>;>>>>>,,,>>>,,,>>>>;>>>--*&$       ",
"    }_$&**-->>>;;>>;;;>>>>>>;;;>>;;>>>--**$       ",
"       $**=-;>>>;;;;;;;;;;;;;;;;;;>>>;-=**$       ",
"       $&**-->>>>;;>>>;;;;;;>>>;;>>>>--***$       ",
"        $**=-;;>>>>>>>>>>>>>>>>>>>>>;-=**&$       ",
"        $&**=--;>>>>>>>>>>>>>>>>>>>;-=***$        ",
"         $&**=--;;>>>>>>>>>>>>>>>;;-=***&$        ",
"          $&**=---;;;>>>>>>>>;;;;--=***&$         ",
"           $&&*==----;;;;;;;;----==***&$          ",
"     {      $$&&*===-----------==***&&$     }~    ",
"    (_        $$&&**===========**&&&$$     }]^    ",
"   }_           $$&&&*********&&&$$$       1^     ",
"                  $$$&&&&&&&&&$$$                 ",
"                                                  ",
"{               {      .~              }~      .] ",
"|{             }|{     .^~             1^~     [2]"};
